<?xml version="1.0" encoding="UTF-8"?>
<svg id="Layer_1" xmlns="http://www.w3.org/2000/svg" version="1.1" viewBox="0 0 512 512">
  <!-- Generator: Adobe Illustrator 29.8.2, SVG Export Plug-In . SVG Version: 2.1.1 Build 3)  -->
  <defs>
    <style>
      .st0 {
        fill: #03008f;
      }

      .st1 {
        fill: #004ce6;
      }
    </style>
  </defs>
  <path class="st0" d="M74.73,155.69l-45.94,39.21c-6.49,5.56-6.49,15.56,0,21.12l45.94,38.98"/>
  <path class="st1" d="M437.27,316.73l45.94-39.21c6.49-5.56,6.49-15.56,0-21.12l-45.94-38.98"/>
  <path class="st1" d="M316.39,95.46c-4.85,0-9.4.89-14.1,1.41,8.73,16.6,14.1,35.13,14.1,55.14v144.37c0,61.51-46.76,111.69-106.79,118.66,20.14,38.46,60.18,65,106.79,65,66.75,0,120.89-53.81,120.89-120.06v-144.37c0-66.33-54.14-120.14-120.89-120.14Z"/>
  <path class="st0" d="M195.63,360v-144.37c0-61.51,46.76-111.69,106.79-118.66-20.14-38.46-60.18-65-106.79-65-66.75,0-120.89,53.81-120.89,120.06v144.37c0,66.33,54.14,120.06,120.89,120.06,4.77,0,9.4-.89,14.02-1.41-8.65-16.53-14.02-35.06-14.02-55.07Z"/>
</svg>